<?xml version="1.0" encoding="iso-8859-1"?>
<!-- Uploaded to: SVG Repo, www.svgrepo.com, Generator: SVG Repo Mixer Tools -->
<svg height="800px" width="800px" version="1.1" id="Layer_1" xmlns="http://www.w3.org/2000/svg" xmlns:xlink="http://www.w3.org/1999/xlink" 
	 viewBox="0 0 512 512" xml:space="preserve">
<circle style="fill:#324A5E;" cx="256" cy="256" r="256"/>
<path style="fill:#2B3B4E;" d="M189.323,440.567l71.42,71.373c136.006-2.474,246.088-110.997,251.061-246.379L388.737,142.495
	c0.229,0.229-2.207,3.031-5.67,6.778l-41.734-41.734l-83.753,37.495l-78.007-11.636l-32.656,1.391l-0.96-0.96l-21.764,21.764
	l15.731,98.909l112.485,112.485v64.109L189.323,440.567z"/>
<path style="fill:#E6F3FF;" d="M217.464,265.425h-49.111c-19.909,0-37.216-13.655-41.153-32.466l-12.033-57.51
	c-2.431-11.619,0.521-23.631,8.095-32.954c8.014-9.866,20.063-15.522,33.058-15.522h61.143v15.515H156.32
	c-8.301,0-15.96,3.567-21.014,9.79c-4.684,5.766-6.442,12.866-4.951,19.994l12.033,57.51c2.441,11.664,13.36,20.13,25.965,20.13
	h49.111V265.425z"/>
<path style="fill:#CFDBE6;" d="M343.647,265.425h-49.111v-15.515h49.111c12.605,0,23.524-8.466,25.965-20.13l12.033-57.509
	c1.491-7.128-0.267-14.227-4.951-19.994c-5.055-6.222-12.714-9.79-21.014-9.79h-61.143v-15.515h61.143
	c12.995,0,25.043,5.656,33.058,15.522c7.575,9.323,10.526,21.335,8.095,32.954l-12.033,57.51
	C380.862,251.771,363.556,265.425,343.647,265.425z"/>
<path style="fill:#F9B54C;" d="M302.702,413.689h-33.773V270.677h-25.859v143.012h-33.771c-4.674,0-8.463,3.789-8.463,8.463
	c0,4.674,3.789,8.463,8.463,8.463h33.773v3.2h25.859v-3.2h33.773c4.673,0,8.463-3.789,8.463-8.463
	C311.167,417.478,307.378,413.689,302.702,413.689z"/>
<path style="fill:#EDA23E;" d="M302.702,413.689h-33.773V270.677h-12.641v163.137h12.641v-3.2h33.773
	c4.673,0,8.463-3.789,8.463-8.463C311.165,417.478,307.378,413.689,302.702,413.689z"/>
<path style="fill:#FFD300;" d="M256.002,325.056L256.002,325.056c-39.972,0-73.054-29.708-75.547-67.841l-9.787-149.675h170.667
	l-9.787,149.675C329.054,295.348,295.972,325.056,256.002,325.056z"/>
<path style="fill:#F4A200;" d="M256.288,107.539v217.51c39.841-0.143,72.771-29.793,75.259-67.834l9.787-149.675h-85.045V107.539z"
	/>
<path style="fill:#FFD300;" d="M315.108,443.701H196.892c-5.915,0-10.711-4.796-10.711-10.711l0,0
	c0-5.915,4.796-10.711,10.711-10.711h118.215c5.915,0,10.711,4.796,10.711,10.711l0,0
	C325.82,438.906,321.024,443.701,315.108,443.701z"/>
<path style="fill:#F4A200;" d="M315.108,422.279h-58.82v21.421h58.82c5.915,0,10.711-4.796,10.711-10.711
	C325.818,427.075,321.024,422.279,315.108,422.279z"/>
<circle style="fill:#F4E3C3;" cx="256" cy="208.386" r="37.064"/>
<path style="fill:#FED8B2;" d="M293.066,208.387c0-20.373-16.441-36.893-36.776-37.05v74.099
	C276.625,245.281,293.066,228.761,293.066,208.387z"/>
<path style="fill:#DD8D00;" d="M299.961,208.387c0-24.143-19.565-43.796-43.672-43.953v13.798
	c16.501,0.157,29.88,13.615,29.88,30.155s-13.379,29.998-29.88,30.155v13.798C280.395,252.185,299.961,232.531,299.961,208.387z"/>
<path style="fill:#F4A200;" d="M256.002,238.556c-16.634,0-30.168-13.534-30.168-30.168s13.534-30.168,30.168-30.168
	c0.097,0,0.191,0.014,0.288,0.014v-13.798c-0.097,0-0.191-0.007-0.288-0.007c-24.24,0-43.96,19.72-43.96,43.96
	s19.72,43.96,43.96,43.96c0.097,0,0.191-0.007,0.288-0.007v-13.798C256.191,238.544,256.098,238.556,256.002,238.556z"/>
</svg>